<svg width="172" height="120" viewBox="0 0 172 120" fill="none" xmlns="http://www.w3.org/2000/svg">
<ellipse cx="86" cy="60" rx="65" ry="60" fill="#509EF2"/>
<path d="M81.7812 59.5117V78.25C81.1484 79.1875 80.1406 80.2422 78.7578 81.4141C77.375 82.5625 75.4648 83.5703 73.0273 84.4375C70.6133 85.2812 67.4961 85.7031 63.6758 85.7031C60.5586 85.7031 57.6875 85.1641 55.0625 84.0859C52.4609 82.9844 50.1992 81.3906 48.2773 79.3047C46.3789 77.1953 44.9023 74.6406 43.8477 71.6406C42.8164 68.6172 42.3008 65.1953 42.3008 61.375V57.4023C42.3008 53.582 42.7461 50.1719 43.6367 47.1719C44.5508 44.1719 45.8867 41.6289 47.6445 39.543C49.4023 37.4336 51.5586 35.8398 54.1133 34.7617C56.668 33.6602 59.5977 33.1094 62.9023 33.1094C66.8164 33.1094 70.0859 33.7891 72.7109 35.1484C75.3594 36.4844 77.4219 38.3359 78.8984 40.7031C80.3984 43.0703 81.3594 45.7656 81.7812 48.7891H74.9961C74.6914 46.9375 74.082 45.25 73.168 43.7266C72.2773 42.2031 71 40.9844 69.3359 40.0703C67.6719 39.1328 65.5273 38.6641 62.9023 38.6641C60.5352 38.6641 58.4844 39.0977 56.75 39.9648C55.0156 40.832 53.5859 42.0742 52.4609 43.6914C51.3359 45.3086 50.4922 47.2656 49.9297 49.5625C49.3906 51.8594 49.1211 54.4492 49.1211 57.332V61.375C49.1211 64.3281 49.4609 66.9648 50.1406 69.2852C50.8438 71.6055 51.8398 73.5859 53.1289 75.2266C54.418 76.8438 55.9531 78.0742 57.7344 78.918C59.5391 79.7617 61.5312 80.1836 63.7109 80.1836C66.125 80.1836 68.082 79.9844 69.582 79.5859C71.082 79.1641 72.2539 78.6719 73.0977 78.1094C73.9414 77.5234 74.5859 76.9727 75.0312 76.457V64.9961H63.1836V59.5117H81.7812ZM123.934 68.7227H130.684C130.332 71.957 129.406 74.8516 127.906 77.4062C126.406 79.9609 124.285 81.9883 121.543 83.4883C118.801 84.9648 115.379 85.7031 111.277 85.7031C108.277 85.7031 105.547 85.1406 103.086 84.0156C100.648 82.8906 98.5508 81.2969 96.793 79.2344C95.0352 77.1484 93.6758 74.6523 92.7148 71.7461C91.7773 68.8164 91.3086 65.5586 91.3086 61.9727V56.875C91.3086 53.2891 91.7773 50.043 92.7148 47.1367C93.6758 44.207 95.0469 41.6992 96.8281 39.6133C98.6328 37.5273 100.801 35.9219 103.332 34.7969C105.863 33.6719 108.711 33.1094 111.875 33.1094C115.742 33.1094 119.012 33.8359 121.684 35.2891C124.355 36.7422 126.43 38.7578 127.906 41.3359C129.406 43.8906 130.332 46.8555 130.684 50.2305H123.934C123.605 47.8398 122.996 45.7891 122.105 44.0781C121.215 42.3438 119.949 41.0078 118.309 40.0703C116.668 39.1328 114.523 38.6641 111.875 38.6641C109.602 38.6641 107.598 39.0977 105.863 39.9648C104.152 40.832 102.711 42.0625 101.539 43.6562C100.391 45.25 99.5234 47.1602 98.9375 49.3867C98.3516 51.6133 98.0586 54.0859 98.0586 56.8047V61.9727C98.0586 64.4805 98.3164 66.8359 98.832 69.0391C99.3711 71.2422 100.18 73.1758 101.258 74.8398C102.336 76.5039 103.707 77.8164 105.371 78.7773C107.035 79.7148 109.004 80.1836 111.277 80.1836C114.16 80.1836 116.457 79.7266 118.168 78.8125C119.879 77.8984 121.168 76.5859 122.035 74.875C122.926 73.1641 123.559 71.1133 123.934 68.7227Z" fill="white"/>
</svg>
