<svg width="130" height="130" viewBox="0 0 130 130" fill="none" xmlns="http://www.w3.org/2000/svg">
<circle cx="65" cy="65" r="65" fill="#509EF2"/>
<path d="M61.2812 63.5117V82.25C60.6484 83.1875 59.6406 84.2422 58.2578 85.4141C56.875 86.5625 54.9648 87.5703 52.5273 88.4375C50.1133 89.2812 46.9961 89.7031 43.1758 89.7031C40.0586 89.7031 37.1875 89.1641 34.5625 88.0859C31.9609 86.9844 29.6992 85.3906 27.7773 83.3047C25.8789 81.1953 24.4023 78.6406 23.3477 75.6406C22.3164 72.6172 21.8008 69.1953 21.8008 65.375V61.4023C21.8008 57.582 22.2461 54.1719 23.1367 51.1719C24.0508 48.1719 25.3867 45.6289 27.1445 43.543C28.9023 41.4336 31.0586 39.8398 33.6133 38.7617C36.168 37.6602 39.0977 37.1094 42.4023 37.1094C46.3164 37.1094 49.5859 37.7891 52.2109 39.1484C54.8594 40.4844 56.9219 42.3359 58.3984 44.7031C59.8984 47.0703 60.8594 49.7656 61.2812 52.7891H54.4961C54.1914 50.9375 53.582 49.25 52.668 47.7266C51.7773 46.2031 50.5 44.9844 48.8359 44.0703C47.1719 43.1328 45.0273 42.6641 42.4023 42.6641C40.0352 42.6641 37.9844 43.0977 36.25 43.9648C34.5156 44.832 33.0859 46.0742 31.9609 47.6914C30.8359 49.3086 29.9922 51.2656 29.4297 53.5625C28.8906 55.8594 28.6211 58.4492 28.6211 61.332V65.375C28.6211 68.3281 28.9609 70.9648 29.6406 73.2852C30.3438 75.6055 31.3398 77.5859 32.6289 79.2266C33.918 80.8438 35.4531 82.0742 37.2344 82.918C39.0391 83.7617 41.0312 84.1836 43.2109 84.1836C45.625 84.1836 47.582 83.9844 49.082 83.5859C50.582 83.1641 51.7539 82.6719 52.5977 82.1094C53.4414 81.5234 54.0859 80.9727 54.5312 80.457V68.9961H42.6836V63.5117H61.2812ZM103.434 72.7227H110.184C109.832 75.957 108.906 78.8516 107.406 81.4062C105.906 83.9609 103.785 85.9883 101.043 87.4883C98.3008 88.9648 94.8789 89.7031 90.7773 89.7031C87.7773 89.7031 85.0469 89.1406 82.5859 88.0156C80.1484 86.8906 78.0508 85.2969 76.293 83.2344C74.5352 81.1484 73.1758 78.6523 72.2148 75.7461C71.2773 72.8164 70.8086 69.5586 70.8086 65.9727V60.875C70.8086 57.2891 71.2773 54.043 72.2148 51.1367C73.1758 48.207 74.5469 45.6992 76.3281 43.6133C78.1328 41.5273 80.3008 39.9219 82.832 38.7969C85.3633 37.6719 88.2109 37.1094 91.375 37.1094C95.2422 37.1094 98.5117 37.8359 101.184 39.2891C103.855 40.7422 105.93 42.7578 107.406 45.3359C108.906 47.8906 109.832 50.8555 110.184 54.2305H103.434C103.105 51.8398 102.496 49.7891 101.605 48.0781C100.715 46.3438 99.4492 45.0078 97.8086 44.0703C96.168 43.1328 94.0234 42.6641 91.375 42.6641C89.1016 42.6641 87.0977 43.0977 85.3633 43.9648C83.6523 44.832 82.2109 46.0625 81.0391 47.6562C79.8906 49.25 79.0234 51.1602 78.4375 53.3867C77.8516 55.6133 77.5586 58.0859 77.5586 60.8047V65.9727C77.5586 68.4805 77.8164 70.8359 78.332 73.0391C78.8711 75.2422 79.6797 77.1758 80.7578 78.8398C81.8359 80.5039 83.207 81.8164 84.8711 82.7773C86.5352 83.7148 88.5039 84.1836 90.7773 84.1836C93.6602 84.1836 95.957 83.7266 97.668 82.8125C99.3789 81.8984 100.668 80.5859 101.535 78.875C102.426 77.1641 103.059 75.1133 103.434 72.7227Z" fill="white"/>
</svg>
