<svg width="431" height="85" viewBox="0 0 431 85" fill="none" xmlns="http://www.w3.org/2000/svg">
<path d="M100.743 69.64C97.5003 69.6827 94.6843 69.1707 92.295 68.104C89.9057 67.0373 87.623 65.4373 85.447 63.304C85.2337 63.1333 85.0417 62.92 84.871 62.664C84.743 62.408 84.679 62.1093 84.679 61.768C84.679 61.256 84.871 60.7867 85.255 60.36C85.6817 59.9333 86.151 59.72 86.663 59.72C87.175 59.72 87.6443 59.9333 88.071 60.36C89.735 62.152 91.6123 63.5173 93.703 64.456C95.8363 65.3947 98.119 65.864 100.551 65.864C102.599 65.864 104.412 65.544 105.991 64.904C107.612 64.264 108.892 63.3467 109.831 62.152C110.77 60.9573 111.239 59.5707 111.239 57.992C111.239 56.0293 110.706 54.4507 109.639 53.256C108.572 52.0187 107.164 51.016 105.415 50.248C103.666 49.4373 101.724 48.712 99.591 48.072C97.8417 47.56 96.1777 46.984 94.599 46.344C93.0203 45.6613 91.6123 44.8507 90.375 43.912C89.1377 42.9307 88.1777 41.736 87.495 40.328C86.8123 38.92 86.471 37.2133 86.471 35.208C86.471 32.9467 87.0683 30.9413 88.263 29.192C89.4577 27.4427 91.143 26.0773 93.319 25.096C95.5377 24.072 98.0977 23.56 100.999 23.56C103.516 23.56 105.927 23.9867 108.231 24.84C110.578 25.6933 112.434 26.952 113.799 28.616C114.439 29.2987 114.759 29.9173 114.759 30.472C114.759 30.8987 114.546 31.3253 114.119 31.752C113.692 32.1787 113.223 32.392 112.711 32.392C112.284 32.392 111.922 32.2427 111.623 31.944C110.898 31.048 109.98 30.2587 108.871 29.576C107.762 28.8507 106.524 28.296 105.159 27.912C103.836 27.528 102.45 27.336 100.999 27.336C98.9937 27.336 97.1803 27.656 95.559 28.296C93.9803 28.8933 92.7217 29.768 91.783 30.92C90.887 32.072 90.439 33.4587 90.439 35.08C90.439 36.872 90.951 38.344 91.975 39.496C92.999 40.648 94.343 41.608 96.007 42.376C97.671 43.1013 99.4417 43.784 101.319 44.424C103.154 44.936 104.903 45.5333 106.567 46.216C108.274 46.856 109.767 47.6667 111.047 48.648C112.37 49.6293 113.394 50.8667 114.119 52.36C114.887 53.8533 115.271 55.7307 115.271 57.992C115.271 60.168 114.652 62.1307 113.415 63.88C112.178 65.6293 110.471 67.016 108.295 68.04C106.162 69.064 103.644 69.5973 100.743 69.64ZM150.185 36.296C150.739 36.296 151.187 36.488 151.529 36.872C151.913 37.256 152.104 37.7253 152.104 38.28V67.08C152.104 67.592 151.913 68.04 151.529 68.424C151.145 68.808 150.697 69 150.185 69C149.63 69 149.161 68.808 148.777 68.424C148.435 68.04 148.265 67.592 148.265 67.08V59.464L149.353 58.952C149.353 60.1467 149.011 61.3627 148.329 62.6C147.689 63.8373 146.793 64.9893 145.641 66.056C144.489 67.1227 143.123 67.9973 141.545 68.68C140.009 69.32 138.345 69.64 136.553 69.64C133.651 69.64 131.049 68.8933 128.745 67.4C126.483 65.9067 124.691 63.8587 123.369 61.256C122.089 58.6533 121.449 55.7307 121.449 52.488C121.449 49.16 122.11 46.2373 123.433 43.72C124.755 41.16 126.547 39.1547 128.809 37.704C131.07 36.2533 133.63 35.528 136.489 35.528C138.323 35.528 140.03 35.848 141.609 36.488C143.23 37.128 144.638 38.0027 145.833 39.112C147.027 40.2213 147.945 41.5013 148.585 42.952C149.267 44.36 149.609 45.832 149.609 47.368L148.265 46.408V38.28C148.265 37.7253 148.435 37.256 148.777 36.872C149.161 36.488 149.63 36.296 150.185 36.296ZM136.873 66.056C139.134 66.056 141.139 65.48 142.889 64.328C144.638 63.1333 146.003 61.512 146.985 59.464C148.009 57.3733 148.521 55.048 148.521 52.488C148.521 49.9707 148.009 47.7093 146.985 45.704C146.003 43.6987 144.638 42.0987 142.889 40.904C141.139 39.7093 139.134 39.112 136.873 39.112C134.654 39.112 132.649 39.688 130.857 40.84C129.107 41.992 127.721 43.5707 126.697 45.576C125.715 47.5813 125.225 49.8853 125.225 52.488C125.225 55.048 125.715 57.3733 126.697 59.464C127.721 61.512 129.107 63.1333 130.857 64.328C132.606 65.48 134.611 66.056 136.873 66.056ZM174.021 21.896C174.661 21.896 175.344 21.96 176.069 22.088C176.837 22.216 177.498 22.4507 178.053 22.792C178.608 23.0907 178.885 23.56 178.885 24.2C178.885 24.6693 178.714 25.096 178.373 25.48C178.032 25.8213 177.648 25.992 177.221 25.992C176.794 25.992 176.261 25.8853 175.621 25.672C174.981 25.416 174.298 25.288 173.573 25.288C172.677 25.288 171.909 25.5013 171.269 25.928C170.629 26.312 170.138 26.888 169.797 27.656C169.456 28.3813 169.285 29.2773 169.285 30.344V67.08C169.285 67.592 169.093 68.04 168.709 68.424C168.368 68.808 167.92 69 167.365 69C166.81 69 166.341 68.808 165.957 68.424C165.616 68.04 165.445 67.592 165.445 67.08V30.344C165.445 27.6133 166.234 25.5227 167.813 24.072C169.434 22.6213 171.504 21.896 174.021 21.896ZM176.453 36.936C176.965 36.936 177.392 37.1067 177.733 37.448C178.074 37.7893 178.245 38.216 178.245 38.728C178.245 39.24 178.074 39.6667 177.733 40.008C177.392 40.3493 176.965 40.52 176.453 40.52H160.773C160.304 40.52 159.877 40.3493 159.493 40.008C159.152 39.624 158.981 39.1973 158.981 38.728C158.981 38.1733 159.152 37.7467 159.493 37.448C159.877 37.1067 160.304 36.936 160.773 36.936H176.453ZM197.653 69.64C194.367 69.64 191.466 68.936 188.949 67.528C186.431 66.12 184.469 64.1573 183.061 61.64C181.653 59.1227 180.949 56.1787 180.949 52.808C180.949 49.1813 181.653 46.088 183.061 43.528C184.511 40.968 186.367 39.0053 188.629 37.64C190.933 36.232 193.365 35.528 195.925 35.528C197.802 35.528 199.615 35.8693 201.365 36.552C203.157 37.192 204.735 38.1733 206.101 39.496C207.509 40.776 208.618 42.3547 209.429 44.232C210.282 46.1093 210.751 48.2853 210.837 50.76C210.794 51.272 210.581 51.72 210.197 52.104C209.813 52.4453 209.365 52.616 208.853 52.616H183.189L182.421 49.16H207.637L206.805 49.928V48.648C206.634 46.6427 205.994 44.936 204.885 43.528C203.775 42.12 202.431 41.0533 200.853 40.328C199.274 39.6027 197.631 39.24 195.925 39.24C194.645 39.24 193.322 39.496 191.957 40.008C190.634 40.52 189.418 41.3307 188.309 42.44C187.242 43.5067 186.367 44.8933 185.685 46.6C185.002 48.264 184.661 50.248 184.661 52.552C184.661 55.0693 185.173 57.352 186.197 59.4C187.221 61.448 188.693 63.0693 190.613 64.264C192.575 65.4587 194.901 66.056 197.589 66.056C199.082 66.056 200.426 65.8427 201.621 65.416C202.815 64.9893 203.861 64.4347 204.757 63.752C205.653 63.0267 206.399 62.28 206.997 61.512C207.466 61.128 207.935 60.936 208.405 60.936C208.831 60.936 209.194 61.1067 209.493 61.448C209.834 61.7893 210.005 62.1733 210.005 62.6C210.005 63.112 209.791 63.56 209.365 63.944C208.085 65.48 206.421 66.824 204.373 67.976C202.325 69.0853 200.085 69.64 197.653 69.64Z" fill="#00BD9D"/>
<path d="M232.368 69.64C229.125 69.6827 226.309 69.1707 223.92 68.104C221.531 67.0373 219.248 65.4373 217.072 63.304C216.859 63.1333 216.667 62.92 216.496 62.664C216.368 62.408 216.304 62.1093 216.304 61.768C216.304 61.256 216.496 60.7867 216.88 60.36C217.307 59.9333 217.776 59.72 218.288 59.72C218.8 59.72 219.269 59.9333 219.696 60.36C221.36 62.152 223.237 63.5173 225.328 64.456C227.461 65.3947 229.744 65.864 232.176 65.864C234.224 65.864 236.037 65.544 237.616 64.904C239.237 64.264 240.517 63.3467 241.456 62.152C242.395 60.9573 242.864 59.5707 242.864 57.992C242.864 56.0293 242.331 54.4507 241.264 53.256C240.197 52.0187 238.789 51.016 237.04 50.248C235.291 49.4373 233.349 48.712 231.216 48.072C229.467 47.56 227.803 46.984 226.224 46.344C224.645 45.6613 223.237 44.8507 222 43.912C220.763 42.9307 219.803 41.736 219.12 40.328C218.437 38.92 218.096 37.2133 218.096 35.208C218.096 32.9467 218.693 30.9413 219.888 29.192C221.083 27.4427 222.768 26.0773 224.944 25.096C227.163 24.072 229.723 23.56 232.624 23.56C235.141 23.56 237.552 23.9867 239.856 24.84C242.203 25.6933 244.059 26.952 245.424 28.616C246.064 29.2987 246.384 29.9173 246.384 30.472C246.384 30.8987 246.171 31.3253 245.744 31.752C245.317 32.1787 244.848 32.392 244.336 32.392C243.909 32.392 243.547 32.2427 243.248 31.944C242.523 31.048 241.605 30.2587 240.496 29.576C239.387 28.8507 238.149 28.296 236.784 27.912C235.461 27.528 234.075 27.336 232.624 27.336C230.619 27.336 228.805 27.656 227.184 28.296C225.605 28.8933 224.347 29.768 223.408 30.92C222.512 32.072 222.064 33.4587 222.064 35.08C222.064 36.872 222.576 38.344 223.6 39.496C224.624 40.648 225.968 41.608 227.632 42.376C229.296 43.1013 231.067 43.784 232.944 44.424C234.779 44.936 236.528 45.5333 238.192 46.216C239.899 46.856 241.392 47.6667 242.672 48.648C243.995 49.6293 245.019 50.8667 245.744 52.36C246.512 53.8533 246.896 55.7307 246.896 57.992C246.896 60.168 246.277 62.1307 245.04 63.88C243.803 65.6293 242.096 67.016 239.92 68.04C237.787 69.064 235.269 69.5973 232.368 69.64ZM270.546 36.04C273.447 36.04 276.007 36.7653 278.226 38.216C280.487 39.624 282.279 41.5867 283.602 44.104C284.924 46.5787 285.586 49.4373 285.586 52.68C285.586 55.9227 284.924 58.8027 283.602 61.32C282.279 63.8373 280.487 65.8213 278.226 67.272C275.964 68.7227 273.426 69.448 270.61 69.448C269.116 69.448 267.687 69.2347 266.322 68.808C264.999 68.3387 263.783 67.72 262.674 66.952C261.564 66.184 260.583 65.288 259.73 64.264C258.876 63.1973 258.194 62.0453 257.682 60.808L258.834 59.976V79.88C258.834 80.392 258.642 80.84 258.258 81.224C257.916 81.608 257.468 81.8 256.914 81.8C256.359 81.8 255.89 81.608 255.506 81.224C255.164 80.84 254.994 80.392 254.994 79.88V38.152C254.994 37.5973 255.164 37.128 255.506 36.744C255.847 36.36 256.316 36.168 256.914 36.168C257.468 36.168 257.916 36.36 258.258 36.744C258.642 37.128 258.834 37.5973 258.834 38.152V45.064L257.938 44.552C258.364 43.2293 258.983 42.056 259.794 41.032C260.647 39.9653 261.628 39.0693 262.738 38.344C263.847 37.576 265.063 37 266.385 36.616C267.708 36.232 269.095 36.04 270.546 36.04ZM270.226 39.624C267.922 39.624 265.895 40.2 264.146 41.352C262.396 42.4613 261.01 43.9973 259.986 45.96C259.004 47.88 258.514 50.12 258.514 52.68C258.514 55.1973 259.004 57.4587 259.986 59.464C261.01 61.4693 262.396 63.048 264.146 64.2C265.895 65.3093 267.922 65.864 270.226 65.864C272.487 65.864 274.471 65.3093 276.178 64.2C277.927 63.048 279.314 61.4693 280.338 59.464C281.362 57.4587 281.874 55.1973 281.874 52.68C281.874 50.1627 281.362 47.9227 280.338 45.96C279.314 43.9973 277.927 42.4613 276.178 41.352C274.471 40.2 272.487 39.624 270.226 39.624ZM308.59 69.64C305.305 69.64 302.403 68.936 299.886 67.528C297.369 66.12 295.406 64.1573 293.998 61.64C292.59 59.1227 291.886 56.1787 291.886 52.808C291.886 49.1813 292.59 46.088 293.998 43.528C295.449 40.968 297.305 39.0053 299.566 37.64C301.87 36.232 304.302 35.528 306.862 35.528C308.739 35.528 310.553 35.8693 312.302 36.552C314.094 37.192 315.673 38.1733 317.038 39.496C318.446 40.776 319.555 42.3547 320.366 44.232C321.219 46.1093 321.689 48.2853 321.774 50.76C321.731 51.272 321.518 51.72 321.134 52.104C320.75 52.4453 320.302 52.616 319.79 52.616H294.126L293.358 49.16H318.574L317.742 49.928V48.648C317.571 46.6427 316.931 44.936 315.822 43.528C314.713 42.12 313.369 41.0533 311.79 40.328C310.211 39.6027 308.569 39.24 306.862 39.24C305.582 39.24 304.259 39.496 302.894 40.008C301.571 40.52 300.355 41.3307 299.246 42.44C298.179 43.5067 297.305 44.8933 296.622 46.6C295.939 48.264 295.598 50.248 295.598 52.552C295.598 55.0693 296.11 57.352 297.134 59.4C298.158 61.448 299.63 63.0693 301.55 64.264C303.513 65.4587 305.838 66.056 308.526 66.056C310.019 66.056 311.363 65.8427 312.558 65.416C313.753 64.9893 314.798 64.4347 315.694 63.752C316.59 63.0267 317.337 62.28 317.934 61.512C318.403 61.128 318.873 60.936 319.342 60.936C319.769 60.936 320.131 61.1067 320.43 61.448C320.771 61.7893 320.942 62.1733 320.942 62.6C320.942 63.112 320.729 63.56 320.302 63.944C319.022 65.48 317.358 66.824 315.31 67.976C313.262 69.0853 311.022 69.64 308.59 69.64ZM344.778 69.64C341.492 69.64 338.591 68.936 336.074 67.528C333.556 66.12 331.594 64.1573 330.186 61.64C328.778 59.1227 328.074 56.1787 328.074 52.808C328.074 49.1813 328.778 46.088 330.186 43.528C331.636 40.968 333.492 39.0053 335.754 37.64C338.058 36.232 340.49 35.528 343.05 35.528C344.927 35.528 346.74 35.8693 348.49 36.552C350.282 37.192 351.86 38.1733 353.226 39.496C354.634 40.776 355.743 42.3547 356.554 44.232C357.407 46.1093 357.876 48.2853 357.962 50.76C357.919 51.272 357.706 51.72 357.322 52.104C356.938 52.4453 356.49 52.616 355.978 52.616H330.314L329.546 49.16H354.762L353.93 49.928V48.648C353.759 46.6427 353.119 44.936 352.01 43.528C350.9 42.12 349.556 41.0533 347.978 40.328C346.399 39.6027 344.756 39.24 343.05 39.24C341.77 39.24 340.447 39.496 339.082 40.008C337.759 40.52 336.543 41.3307 335.434 42.44C334.367 43.5067 333.492 44.8933 332.81 46.6C332.127 48.264 331.786 50.248 331.786 52.552C331.786 55.0693 332.298 57.352 333.322 59.4C334.346 61.448 335.818 63.0693 337.738 64.264C339.7 65.4587 342.026 66.056 344.714 66.056C346.207 66.056 347.551 65.8427 348.746 65.416C349.94 64.9893 350.986 64.4347 351.882 63.752C352.778 63.0267 353.524 62.28 354.122 61.512C354.591 61.128 355.06 60.936 355.53 60.936C355.956 60.936 356.319 61.1067 356.618 61.448C356.959 61.7893 357.13 62.1733 357.13 62.6C357.13 63.112 356.916 63.56 356.49 63.944C355.21 65.48 353.546 66.824 351.498 67.976C349.45 69.0853 347.21 69.64 344.778 69.64ZM380.581 35.528C382.629 35.528 384.506 35.7627 386.213 36.232C387.92 36.6587 389.285 37.256 390.309 38.024C391.376 38.792 391.909 39.624 391.909 40.52C391.909 40.9467 391.76 41.3733 391.461 41.8C391.162 42.184 390.757 42.376 390.245 42.376C389.733 42.376 389.306 42.248 388.965 41.992C388.666 41.736 388.346 41.4373 388.005 41.096C387.706 40.7547 387.258 40.4347 386.661 40.136C386.106 39.88 385.317 39.6453 384.293 39.432C383.269 39.2187 382.096 39.112 380.773 39.112C378.384 39.112 376.229 39.7093 374.309 40.904C372.389 42.0987 370.874 43.72 369.765 45.768C368.656 47.7733 368.101 50.0347 368.101 52.552C368.101 55.112 368.634 57.416 369.701 59.464C370.768 61.512 372.24 63.1333 374.117 64.328C375.994 65.48 378.192 66.056 380.709 66.056C382.416 66.056 383.738 65.9067 384.677 65.608C385.616 65.3093 386.426 64.968 387.109 64.584C387.92 64.1147 388.496 63.6667 388.837 63.24C389.221 62.7707 389.712 62.536 390.309 62.536C390.864 62.536 391.269 62.7067 391.525 63.048C391.824 63.3467 391.973 63.752 391.973 64.264C391.973 64.9467 391.461 65.7147 390.437 66.568C389.456 67.3787 388.09 68.104 386.341 68.744C384.592 69.3413 382.586 69.64 380.325 69.64C377.125 69.64 374.309 68.8933 371.877 67.4C369.488 65.9067 367.61 63.88 366.245 61.32C364.922 58.7173 364.261 55.7947 364.261 52.552C364.261 49.4373 364.944 46.6 366.309 44.04C367.674 41.48 369.573 39.432 372.005 37.896C374.48 36.3173 377.338 35.528 380.581 35.528ZM414.218 36.04C416.906 36.04 419.082 36.616 420.746 37.768C422.41 38.92 423.626 40.4773 424.394 42.44C425.205 44.4027 425.61 46.5787 425.61 48.968V67.08C425.61 67.592 425.418 68.04 425.034 68.424C424.65 68.808 424.202 69 423.69 69C423.093 69 422.623 68.808 422.282 68.424C421.941 68.04 421.77 67.592 421.77 67.08V48.968C421.77 47.2187 421.493 45.64 420.938 44.232C420.426 42.824 419.573 41.7147 418.378 40.904C417.183 40.0507 415.583 39.624 413.578 39.624C411.786 39.624 410.079 40.0507 408.458 40.904C406.879 41.7147 405.599 42.824 404.618 44.232C403.637 45.64 403.146 47.2187 403.146 48.968V67.08C403.146 67.592 402.954 68.04 402.57 68.424C402.186 68.808 401.738 69 401.226 69C400.629 69 400.159 68.808 399.818 68.424C399.477 68.04 399.306 67.592 399.306 67.08V23.56C399.306 23.048 399.477 22.6 399.818 22.216C400.202 21.832 400.671 21.64 401.226 21.64C401.781 21.64 402.229 21.832 402.57 22.216C402.954 22.6 403.146 23.048 403.146 23.56V44.296L401.674 46.536C401.759 45.2133 402.165 43.9333 402.89 42.696C403.658 41.416 404.639 40.2853 405.834 39.304C407.029 38.28 408.351 37.4907 409.802 36.936C411.253 36.3387 412.725 36.04 414.218 36.04Z" fill="black"/>
<path fill-rule="evenodd" clip-rule="evenodd" d="M37 0C33.3529 0 27.2584 1.40781 21.5234 2.975C15.6563 4.56875 9.74159 6.45469 6.26359 7.59687C4.80945 8.07952 3.52026 8.96466 2.54413 10.1506C1.568 11.3365 0.944518 12.7752 0.745314 14.3012C-2.40497 38.0853 4.90517 55.7122 13.7746 67.3731C17.5358 72.3614 22.0204 76.7541 27.0787 80.4047C29.119 81.855 31.0113 82.9653 32.6181 83.725C34.0981 84.4263 35.6891 85 37 85C38.3109 85 39.8966 84.4263 41.3819 83.725C43.319 82.7787 45.1722 81.6679 46.9213 80.4047C51.9797 76.7542 56.4643 72.3615 60.2254 67.3731C69.0948 55.7122 76.405 38.0853 73.2547 14.3012C73.0558 12.7744 72.4325 11.335 71.4564 10.1481C70.4803 8.96126 69.191 8.07516 67.7364 7.59156C62.6875 5.92776 57.5994 4.38668 52.4766 2.96969C46.7416 1.41313 40.6471 0 37 0ZM37 26.5625C38.8724 26.5597 40.6854 27.223 42.1178 28.435C43.5503 29.6469 44.5097 31.3293 44.8263 33.1841C45.1428 35.0389 44.796 36.9464 43.8473 38.5689C42.8986 40.1913 41.4092 41.4239 39.6429 42.0484L41.6779 52.6203C41.7519 53.0048 41.7404 53.401 41.6442 53.7806C41.5481 54.1601 41.3696 54.5136 41.1216 54.8157C40.8735 55.1177 40.5621 55.3609 40.2096 55.5279C39.8571 55.6948 39.4722 55.7813 39.0826 55.7812H34.9174C34.5282 55.7806 34.1439 55.6935 33.7921 55.5262C33.4402 55.3589 33.1295 55.1156 32.882 54.8136C32.6346 54.5116 32.4566 54.1584 32.3607 53.7793C32.2648 53.4001 32.2535 53.0044 32.3274 52.6203L34.3571 42.0484C32.5908 41.4239 31.1014 40.1913 30.1527 38.5689C29.204 36.9464 28.8572 35.0389 29.1737 33.1841C29.4903 31.3293 30.4497 29.6469 31.8822 28.435C33.3146 27.223 35.1276 26.5597 37 26.5625Z" fill="#00BD9D"/>
</svg>
