<svg width="384" height="420" viewBox="0 0 384 420" fill="none" xmlns="http://www.w3.org/2000/svg">
<path d="M1.93422 29.4135C-0.392043 14.8345 10.871 1.63177 25.6344 1.63177L211.434 1.63177C223.229 1.63177 233.276 10.2025 235.134 21.8501L293.882 390.031C296.208 404.61 284.945 417.812 270.182 417.812H84.3825C72.5875 417.812 62.5408 409.242 60.6823 397.594L1.93422 29.4135Z" fill="#2A8BF2"/>
<path d="M60.6823 397.594L59.201 397.831L60.6823 397.594ZM293.882 390.031L292.401 390.267L293.882 390.031ZM235.134 21.8501L236.615 21.6137L235.134 21.8501ZM25.6344 3.13177L211.434 3.13177V0.131775L25.6344 0.131775V3.13177ZM233.653 22.0865L292.401 390.267L295.363 389.794L236.615 21.6137L233.653 22.0865ZM270.182 416.312H84.3825V419.312H270.182V416.312ZM62.1635 397.358L3.41548 29.1771L0.452954 29.6498L59.201 397.831L62.1635 397.358ZM84.3825 416.312C73.3247 416.312 63.9059 408.277 62.1635 397.358L59.201 397.831C61.1757 410.206 71.8503 419.312 84.3825 419.312V416.312ZM292.401 390.267C294.582 403.935 284.023 416.312 270.182 416.312V419.312C285.868 419.312 297.835 405.285 295.363 389.794L292.401 390.267ZM211.434 3.13177C222.492 3.13177 231.91 11.1668 233.653 22.0865L236.615 21.6137C234.641 9.23814 223.966 0.131775 211.434 0.131775V3.13177ZM25.6344 0.131775C9.94833 0.131775 -2.0187 14.1597 0.452954 29.6498L3.41548 29.1771C1.23461 15.5094 11.7938 3.13177 25.6344 3.13177V0.131775Z" fill="black"/>
<path d="M145.285 34.3579L155.872 34.3579" stroke="black" stroke-width="3" stroke-linejoin="round"/>
<path d="M73.5378 34.3579H128.426" stroke="black" stroke-width="3" stroke-linejoin="round"/>
<path d="M30.4128 65.6938H264.82L312.269 362.832H77.8618L30.4128 65.6938Z" fill="white" stroke="black" stroke-width="3"/>
<path d="M256.802 224.312C257.709 229.016 254.105 233.381 249.315 233.381L145.207 233.381C141.497 233.381 138.325 230.71 137.693 227.054V227.054C136.887 222.393 140.476 218.13 145.207 218.13L249.315 218.13C252.969 218.13 256.11 220.723 256.802 224.312V224.312Z" fill="#2A8BF2" stroke="black" stroke-width="3"/>
<path d="M212.826 107.468C213.733 112.171 210.129 116.537 205.338 116.537L74.5637 116.537C70.8534 116.537 67.6817 113.866 67.0497 110.21V110.21C66.244 105.549 69.8331 101.286 74.5637 101.286L205.338 101.286C208.993 101.286 212.134 103.879 212.826 107.468V107.468Z" fill="white" stroke="black" stroke-width="3"/>
<path d="M261.144 262.085C262.05 266.789 258.446 271.154 253.656 271.154L189.548 271.154C185.838 271.154 182.666 268.483 182.034 264.827V264.827C181.229 260.166 184.818 255.903 189.548 255.903L253.656 255.903C257.311 255.903 260.452 258.496 261.144 262.085V262.085Z" fill="#2A8BF2" stroke="black" stroke-width="3"/>
<path fill-rule="evenodd" clip-rule="evenodd" d="M354.113 195.606C371.875 195.606 385.238 179.42 381.875 161.98C379.309 148.674 367.664 139.059 354.113 139.059L116.416 139.059C98.8761 139.059 85.5685 154.864 88.556 172.148C89.335 176.654 91.1545 180.757 93.7422 184.226L82.353 195.606H129.415V195.606L354.113 195.606Z" fill="white"/>
<path d="M381.875 161.98L380.402 162.264L381.875 161.98ZM354.113 195.606V197.106V195.606ZM354.113 139.059V137.559V139.059ZM116.416 139.059V137.559V139.059ZM88.556 172.148L90.0341 171.892L88.556 172.148ZM93.7422 184.226L94.8024 185.287L95.7206 184.37L94.9445 183.329L93.7422 184.226ZM82.353 195.606L81.2928 194.545L78.7297 197.106H82.353V195.606ZM129.415 195.606V197.106H130.915V195.606H129.415ZM129.415 195.606V194.106H127.915V195.606H129.415ZM380.402 162.264C383.586 178.779 370.933 194.106 354.113 194.106V197.106C372.817 197.106 386.889 180.062 383.348 161.696L380.402 162.264ZM354.113 140.559C366.945 140.559 377.973 149.664 380.402 162.264L383.348 161.696C380.646 147.684 368.383 137.559 354.113 137.559V140.559ZM116.416 140.559L354.113 140.559V137.559L116.416 137.559V140.559ZM90.0341 171.892C87.2051 155.526 99.8067 140.559 116.416 140.559V137.559C97.9456 137.559 83.9319 154.203 87.078 172.403L90.0341 171.892ZM94.9445 183.329C92.4948 180.045 90.772 176.161 90.0341 171.892L87.078 172.403C87.898 177.147 89.8143 181.469 92.5398 185.123L94.9445 183.329ZM83.4133 196.667L94.8024 185.287L92.6819 183.165L81.2928 194.545L83.4133 196.667ZM129.415 194.106H82.353V197.106H129.415V194.106ZM127.915 195.606V195.606H130.915V195.606H127.915ZM354.113 194.106L129.415 194.106V197.106L354.113 197.106V194.106Z" fill="black"/>
<path fill-rule="evenodd" clip-rule="evenodd" d="M131.022 331.52C119.134 331.52 110.192 320.689 112.442 309.016C114.159 300.111 121.953 293.677 131.022 293.677L250.099 293.677C261.837 293.677 270.744 304.254 268.744 315.822C268.223 318.837 267.005 321.583 265.274 323.904L272.896 331.52H241.4V331.52L131.022 331.52Z" fill="#00BD9D"/>
<path d="M112.442 309.017L113.915 309.3V309.3L112.442 309.017ZM131.022 331.521V330.021V331.521ZM131.022 293.677V295.177V293.677ZM250.099 293.677V295.177V293.677ZM268.744 315.822L270.222 316.077L268.744 315.822ZM265.274 323.904L264.213 324.965L263.295 324.048L264.071 323.008L265.274 323.904ZM272.896 331.521L273.956 330.459L276.519 333.021H272.896V331.521ZM241.4 331.521V333.021H239.9V331.521H241.4ZM241.4 331.52V330.02H242.9V331.52H241.4ZM113.915 309.3C111.843 320.047 120.077 330.021 131.022 330.021V333.021C118.192 333.021 108.54 321.33 110.969 308.733L113.915 309.3ZM131.022 295.177C122.672 295.177 115.496 301.101 113.915 309.3L110.969 308.733C112.822 299.122 121.234 292.177 131.022 292.177V295.177ZM250.099 295.177L131.022 295.177V292.177L250.099 292.177V295.177ZM267.266 315.566C269.107 304.916 260.907 295.177 250.099 295.177V292.177C262.768 292.177 272.38 303.593 270.222 316.077L267.266 315.566ZM264.071 323.008C265.665 320.871 266.786 318.344 267.266 315.566L270.222 316.077C269.66 319.33 268.346 322.295 266.476 324.801L264.071 323.008ZM271.836 332.582L264.213 324.965L266.334 322.843L273.956 330.459L271.836 332.582ZM241.4 330.021H272.896V333.021H241.4V330.021ZM242.9 331.52V331.521H239.9V331.52H242.9ZM131.022 330.021L241.4 330.02V333.02L131.022 333.021V330.021Z" fill="black"/>
<mask id="path-13-inside-1_41_555" fill="white">
<path fill-rule="evenodd" clip-rule="evenodd" d="M226.101 173.762C226.254 172.94 225.87 172.122 225.209 171.611C222.372 169.419 220.564 165.969 220.612 162.11C220.694 155.584 226.054 150.359 232.586 150.44C239.117 150.522 244.345 155.878 244.264 162.404C244.216 166.262 242.323 169.665 239.434 171.786C238.76 172.281 238.355 173.089 238.489 173.914L239.79 181.977C239.988 183.203 239.033 184.311 237.791 184.295L226.539 184.155C225.298 184.14 224.37 183.008 224.598 181.788L226.101 173.762Z"/>
</mask>
<path fill-rule="evenodd" clip-rule="evenodd" d="M226.101 173.762C226.254 172.94 225.87 172.122 225.209 171.611C222.372 169.419 220.564 165.969 220.612 162.11C220.694 155.584 226.054 150.359 232.586 150.44C239.117 150.522 244.345 155.878 244.264 162.404C244.216 166.262 242.323 169.665 239.434 171.786C238.76 172.281 238.355 173.089 238.489 173.914L239.79 181.977C239.988 183.203 239.033 184.311 237.791 184.295L226.539 184.155C225.298 184.14 224.37 183.008 224.598 181.788L226.101 173.762Z" fill="black"/>
<path d="M220.612 162.11L217.612 162.073L217.612 162.073L220.612 162.11ZM232.586 150.44L232.548 153.44L232.586 150.44ZM244.264 162.404L247.264 162.441L244.264 162.404ZM239.79 181.977L242.752 181.498L239.79 181.977ZM239.434 171.786L241.209 174.205L239.434 171.786ZM226.539 184.155L226.502 187.155L226.539 184.155ZM224.598 181.788L221.65 181.236L224.598 181.788ZM225.209 171.611L223.374 173.984L225.209 171.611ZM226.101 173.762L229.049 174.314L226.101 173.762ZM223.612 162.147C223.576 165.024 224.92 167.596 227.043 169.237L223.374 173.984C219.825 171.241 217.552 166.914 217.612 162.073L223.612 162.147ZM232.548 153.44C227.671 153.379 223.673 157.28 223.612 162.147L217.612 162.073C217.715 153.887 224.437 147.339 232.623 147.441L232.548 153.44ZM241.264 162.367C241.325 157.499 237.425 153.501 232.548 153.44L232.623 147.441C240.809 147.542 247.366 154.256 247.264 162.441L241.264 162.367ZM237.658 169.368C239.821 167.78 241.228 165.243 241.264 162.367L247.264 162.441C247.203 167.282 244.824 171.551 241.209 174.205L237.658 169.368ZM236.829 182.455L235.527 174.393L241.45 173.436L242.752 181.498L236.829 182.455ZM226.577 181.156L237.828 181.296L237.754 187.295L226.502 187.155L226.577 181.156ZM229.049 174.314L227.547 182.34L221.65 181.236L223.152 173.21L229.049 174.314ZM242.752 181.498C243.247 184.563 240.858 187.334 237.754 187.295L237.828 181.296C237.208 181.288 236.73 181.842 236.829 182.455L242.752 181.498ZM241.209 174.205C241.263 174.165 241.33 174.097 241.384 173.979C241.442 173.853 241.487 173.661 241.45 173.436L235.527 174.393C235.184 172.268 236.241 170.409 237.658 169.368L241.209 174.205ZM226.502 187.155C223.398 187.117 221.078 184.288 221.65 181.236L227.547 182.34C227.661 181.729 227.198 181.163 226.577 181.156L226.502 187.155ZM227.043 169.237C228.435 170.312 229.445 172.198 229.049 174.314L223.152 173.21C223.11 173.434 223.15 173.627 223.204 173.754C223.255 173.873 223.321 173.943 223.374 173.984L227.043 169.237Z" fill="black" mask="url(#path-13-inside-1_41_555)"/>
<mask id="path-15-inside-2_41_555" fill="white">
<path fill-rule="evenodd" clip-rule="evenodd" d="M187.779 317.388C187.933 316.566 187.542 315.753 186.91 315.206C185.193 313.718 184.119 311.513 184.149 309.065C184.205 304.651 187.83 301.117 192.248 301.172C196.665 301.227 200.201 304.85 200.146 309.264C200.116 311.712 198.987 313.889 197.234 315.333C196.589 315.865 196.179 316.668 196.312 317.493L196.998 321.742C197.196 322.968 196.24 324.076 194.999 324.061L188.928 323.985C187.686 323.97 186.759 322.838 186.987 321.617L187.779 317.388Z"/>
</mask>
<path fill-rule="evenodd" clip-rule="evenodd" d="M187.779 317.388C187.933 316.566 187.542 315.753 186.91 315.206C185.193 313.718 184.119 311.513 184.149 309.065C184.205 304.651 187.83 301.117 192.248 301.172C196.665 301.227 200.201 304.85 200.146 309.264C200.116 311.712 198.987 313.889 197.234 315.333C196.589 315.865 196.179 316.668 196.312 317.493L196.998 321.742C197.196 322.968 196.24 324.076 194.999 324.061L188.928 323.985C187.686 323.97 186.759 322.838 186.987 321.617L187.779 317.388Z" fill="black"/>
<path d="M184.15 309.065L181.15 309.028L184.15 309.065ZM192.248 301.172L192.285 298.173L192.248 301.172ZM200.146 309.264L197.147 309.227L200.146 309.264ZM196.312 317.493L199.274 317.015L196.312 317.493ZM188.928 323.985L188.966 320.985L188.928 323.985ZM186.987 321.617L189.936 322.169L186.987 321.617ZM186.91 315.206L188.875 312.939L186.91 315.206ZM187.149 309.102C187.13 310.63 187.797 312.004 188.875 312.939L184.945 317.473C182.59 315.432 181.108 312.397 181.15 309.028L187.149 309.102ZM192.21 304.172C189.447 304.138 187.184 306.347 187.149 309.102L181.15 309.028C181.226 302.955 186.213 298.097 192.285 298.173L192.21 304.172ZM197.147 309.227C197.181 306.472 194.973 304.206 192.21 304.172L192.285 298.173C198.357 298.248 203.222 303.228 203.146 309.301L197.147 309.227ZM195.327 313.018C196.427 312.111 197.128 310.754 197.147 309.227L203.146 309.301C203.104 312.67 201.547 315.667 199.142 317.649L195.327 313.018ZM194.036 322.22L193.35 317.972L199.274 317.015L199.96 321.264L194.036 322.22ZM188.966 320.985L195.036 321.061L194.961 327.06L188.891 326.985L188.966 320.985ZM190.728 317.94L189.936 322.169L184.038 321.066L184.83 316.836L190.728 317.94ZM199.96 321.264C200.455 324.329 198.066 327.099 194.961 327.06L195.036 321.061C194.415 321.053 193.937 321.607 194.036 322.22L199.96 321.264ZM199.142 317.649C199.146 317.646 199.153 317.639 199.165 317.625C199.176 317.61 199.196 317.581 199.217 317.534C199.261 317.436 199.312 317.25 199.274 317.015L193.35 317.972C193.004 315.827 194.092 314.036 195.327 313.018L199.142 317.649ZM188.891 326.985C185.786 326.946 183.467 324.117 184.038 321.066L189.936 322.169C190.05 321.559 189.586 320.993 188.966 320.985L188.891 326.985ZM188.875 312.939C190.084 313.987 191.127 315.804 190.728 317.94L184.83 316.836C184.786 317.071 184.832 317.257 184.874 317.357C184.893 317.404 184.913 317.434 184.924 317.449C184.935 317.463 184.942 317.47 184.945 317.473L188.875 312.939Z" fill="black" mask="url(#path-15-inside-2_41_555)"/>
</svg>
